<?xml version="1.0" encoding="UTF-8"?>
<svg width="55px" height="16px" viewBox="0 0 55 16" version="1.1" xmlns="http://www.w3.org/2000/svg" xmlnsXlink="http://www.w3.org/1999/xlink">
    <title>3rd_party/clutch/logo</title>
    <g id="3rd_party/clutch/logo" stroke="none" strokeWidth="1" fill="none" fillRule="evenodd">
        <g id="clutch_logo" fillRule="nonzero">
            <rect id="Rectangle" fill="#7F7F7F" x="14.158233" y="0" width="2.47727273" height="16"></rect>
            <path d="M25.3059602,10.896 C25.3059602,13.34464 23.3136136,13.53984 22.7209261,13.53984 C21.2401364,13.53984 20.970733,12.10752 20.970733,11.24352 L20.970733,5.12 L18.4934602,5.12 L18.4934602,11.23072 C18.4934602,12.74752 18.954233,13.99936 19.7618239,14.83392 C20.4752784,15.57184 21.5442216,15.97504 22.7023466,15.97504 C23.5235625,15.97504 24.686642,15.71072 25.3059602,15.1264 L25.3059602,16 L27.783233,16 L27.783233,5.12 L25.3059602,5.12 L25.3059602,10.896 Z" id="Path" fill="#7F7F7F"></path>
            <polygon id="Path" fill="#7F7F7F" points="32.7377784 1.28 30.2605056 1.28 30.2605056 5.12 28.4025511 5.12 28.4025511 7.68 30.2605056 7.68 30.2605056 16 32.7377784 16 32.7377784 7.68 34.595733 7.68 34.595733 5.12 32.7377784 5.12"></polygon>
            <path d="M42.3972841,12.74688 C41.857858,13.248 41.145642,13.52576 40.3640625,13.52576 C38.6411194,13.52576 37.3758523,12.21824 37.3758523,10.42304 C37.3758523,8.62784 38.6008636,7.37536 40.3640625,7.37536 C41.132017,7.37536 41.857858,7.63968 42.4109091,8.1408 L42.7868352,8.47488 L44.4571364,6.74944 L44.0390966,6.35968 C43.0562386,5.44256 41.7513352,4.928 40.3634431,4.928 C37.2668523,4.928 35.018108,7.23712 35.018108,10.4096 C35.018108,13.56864 37.320733,15.96032 40.3634431,15.96032 C41.7773466,15.96032 43.095875,15.44576 44.0663466,14.51392 L44.470142,14.12416 L42.7738295,12.4 L42.3972841,12.74688 Z" id="Path" fill="#7F7F7F"></path>
            <path d="M53.299142,6.06848 C52.5856875,5.3312 51.749608,4.928 50.591483,4.928 C49.770267,4.928 48.8400511,5.19232 48.220733,5.776 L48.220733,0 L45.7434602,0 L45.7434602,16 L48.220733,16 L48.220733,10.0064 C48.220733,7.55776 49.9040398,7.3632 50.4967273,7.3632 C51.977517,7.3632 51.936642,8.79616 51.936642,9.65888 L51.936642,16 L54.4139148,16 L54.4139148,9.67232 C54.4139148,8.15552 54.1073523,6.90368 53.299142,6.06848" id="Path" fill="#7F7F7F"></path>
            <path d="M40.2823125,8.60032 C41.271983,8.60032 42.074,9.42784 42.074,10.4512 C42.074,11.47328 41.271983,12.30208 40.2823125,12.30208 C39.2932614,12.30208 38.4918636,11.47328 38.4918636,10.4512 C38.492483,9.42848 39.2938806,8.60032 40.2823125,8.60032" id="Path" fill="#FF3D2E"></path>
            <path d="M10.6900511,11.98144 C9.74806819,12.98304 8.46855681,13.52576 7.12215909,13.52576 C4.36247727,13.52576 2.35588636,11.28576 2.35588636,8.2112 C2.35588636,5.12256 4.36247727,2.88256 7.12215909,2.88256 C8.45555114,2.88256 9.72081819,3.42464 10.6770455,4.4128 L11.0535909,4.80256 L12.7096477,3.0912 L12.346108,2.70144 C10.9730795,1.24032 9.115125,0.448 7.12215909,0.448 C3.05633523,0.448 0,3.78688 0,8.22464 C0,12.64896 3.06996023,15.9744 7.12215909,15.9744 C9.12875,15.9744 10.9867045,15.168 12.359733,13.70688 L12.7232727,13.31712 L11.0808409,11.57824 L10.6900511,11.98144 Z" id="Path" fill="#7F7F7F"></path>
        </g>
    </g>
</svg>